<svg width="70" height="18" viewBox="0 0 70 18" fill="none" xmlns="http://www.w3.org/2000/svg">
<g clip-path="url(#clip0_3077_5070)">
<path d="M0 9.52548V8.56798C0.547826 8.3457 1.05217 8.01229 1.6 7.9268C3.83478 7.58483 6.0087 7.08044 8.05217 6.11439C8.58261 5.86646 9.10435 5.60144 9.64348 5.37917C10.3304 5.0885 10.8609 4.63539 11.2696 4.10535C11.1652 3.49836 11.0783 2.94267 10.9913 2.40408C11.7652 1.70305 12.5826 1.40384 13.5217 1.41238C13.8783 1.41238 13.9565 1.49788 14.4435 2.07066C14.487 2.58361 14.1565 2.89138 13.7913 3.1564C12.8087 3.85743 11.7739 4.47296 10.9565 5.38771C10.6609 5.72113 10.1304 5.86646 9.43478 6.25117C9.98261 6.27682 10.2261 6.31957 10.4609 6.29392C11.713 6.18278 12.9739 6.04599 14.2261 5.94341C15.9478 5.79807 17.6435 6.04599 19.3478 6.19988C21.8696 6.4307 24.0522 5.73823 25.7478 3.81468C25.8609 3.68644 25.8957 3.50691 25.9739 3.33593C25.6957 2.78879 24.887 2.54087 25.1652 1.62611C25.4 1.31834 25.7043 0.873791 26.0522 0.471984C26.3913 0.0787253 26.8261 -0.135002 27.3739 0.0274308C27.9826 0.206962 28.3391 0.634417 28.3652 1.30125C28.3826 1.68596 28.313 2.07921 28.2783 2.50667C27.8261 2.7204 27.4261 2.89993 27.0957 3.05381C26.6 3.73774 26.1304 4.37892 25.5913 5.12269C25.8522 5.0885 26.0522 5.09704 26.2174 5.02865C27.6957 4.45586 29.0957 3.77193 30.1913 2.59216C30.6609 2.08776 31.2609 1.78 31.9565 1.6945C32.4696 1.63466 32.9565 1.7287 33.2957 2.14761C33.5739 2.48957 33.5217 3.1564 33.1478 3.6437C32.5565 4.41312 31.7304 4.71234 30.7652 4.59265C30.2783 4.5328 29.7913 4.41312 29.2174 4.31053C27.6696 5.22528 26.0261 6.08874 24.1739 6.51619L24.2261 6.78122C24.4174 6.84106 24.6 6.918 24.8 6.94365C26.8957 7.21722 29 7.48224 31.0957 7.75581C32.4783 7.93535 33.8609 8.13197 35.2348 8.32005C35.3652 8.33715 35.4957 8.38845 35.6348 8.397C38.1913 8.59363 40.7478 8.7988 43.3044 8.98688C44.3565 9.06383 45.3739 8.79026 46.3304 8.41409C47.3478 8.01229 48.1565 7.30271 48.7826 6.39651C48.6174 5.75533 48.4522 5.13124 48.2783 4.49006C49.3913 3.78048 50.4783 3.78903 51.5652 4.03696C52.3217 5.11414 52.2609 5.73823 51.313 6.4307C50.8348 6.78122 50.313 7.00349 49.7044 7.08044C49.4087 7.11463 48.9913 7.20012 48.8609 7.4053C48.3826 8.16617 47.5478 8.47394 46.9217 9.02108C46.8609 9.08092 46.8174 9.16642 46.6957 9.34595C46.9304 9.39724 47.113 9.48273 47.3044 9.48273C48.5652 9.49128 49.8261 9.44854 51.087 9.49128C52.9826 9.55967 54.8522 9.32885 56.7131 8.99543C57.687 8.82445 57.9652 8.62782 59 7.48224C59.0696 5.40481 59.6783 4.94316 61.8 5.37917C62.0783 5.66983 62.1739 6.02035 61.9913 6.35376C61.8261 6.65298 61.6 6.9693 61.3217 7.14883C60.8348 7.4566 60.2783 7.66177 59.7478 7.91825C59.3391 8.11488 58.9826 8.3457 58.8087 8.8159C60.1217 9.01253 63.3304 8.40555 65.8609 7.49934C66.487 5.84082 67.5304 4.66959 69.5826 5.0372C70.1826 6.12294 70.1304 6.80686 69.3217 7.43095C68.5391 8.02939 67.7131 8.59363 66.6261 8.47394C66.4087 8.44829 66.1739 8.47394 65.9565 8.52523C64.5478 8.833 63.1304 9.08092 61.7478 9.48273C59.3478 10.1752 56.8957 10.483 54.4174 10.5086C52.5739 10.5257 50.7304 10.3633 48.8957 10.2522C46.8696 10.1325 44.8522 9.97858 42.8348 9.8247C42.3913 9.7905 41.9478 9.71356 41.4957 9.67936C40.8348 9.62807 40.1739 9.60242 39.3652 9.55112C39.6609 10.218 40.1826 10.4488 40.5478 10.8078C40.9304 11.184 41.3565 11.5089 41.7739 11.8508C41.9478 11.9962 42.1391 12.1159 42.3217 12.2355C44.3913 13.5948 43.7043 13.6632 46.7652 13.27C47.2174 12.8938 47.7304 12.4407 48.5652 12.6373C49.1217 12.9879 49.4522 13.5094 49.3826 14.2104C49.0261 14.7917 48.5044 14.8516 47.8609 14.8003C47.5913 14.6122 47.2609 14.3899 46.8957 14.142C45.9391 14.0052 44.9826 14.142 43.9391 14.3899C44.087 15.1337 44.2174 15.8005 44.3304 16.3819C43.9217 16.9888 43.4435 17.1855 42.7478 17.2453C42.4174 17.0401 42.0174 16.7837 41.6609 16.5614C41.3391 15.2876 42.5913 15.3731 43.0783 14.749C42.887 14.2446 42.687 13.7145 42.513 13.2443C41.513 12.398 40.5913 11.5516 39.6087 10.7907C39.1565 10.4402 38.6174 10.1752 38.0783 9.97858C36 9.21771 33.8261 8.85865 31.6174 8.75606C31.4435 8.75606 31.2609 8.77316 31.0696 8.78171C31.5913 9.68791 32.6609 10.5685 33.6522 10.9446C34.6435 11.3208 34.6783 11.3635 34.8348 12.7485C34.6348 12.9195 34.3044 13.2016 34.0957 13.3811C33.1478 13.6119 32.4696 13.4752 31.8348 13.0648C31.4609 12.8254 31.287 12.492 31.3826 11.9449C31.6348 11.714 31.9565 11.4234 32.3565 11.0558C32.0087 10.7565 31.7391 10.483 31.4261 10.2522C29.8 9.02108 28.0522 8.13197 25.9565 7.90115C23.7652 7.65322 21.6 7.20867 19.4174 6.96075C18.1739 6.81541 16.9044 6.89236 15.6435 6.87526C15.5826 6.87526 15.5217 6.9693 15.4087 7.07189C16.313 7.49079 17.2435 7.82421 18.0609 8.3286C18.8522 8.8159 19.5304 9.49128 20.3043 10.1154C21.1391 9.7392 21.8696 10.1923 22.6 10.2265C23.2087 11.3122 23.2087 11.8166 22.6435 12.4835C22.1739 13.0306 20.9565 13.3897 20.2957 13.1588C19.7652 12.9793 19.3913 12.4065 19.4609 11.7824C19.5043 11.3977 19.6348 11.013 19.7391 10.6198C19.087 9.71356 18.2174 9.04673 17.2783 8.55943C15.687 7.74727 13.9913 7.10608 12.113 7.32836C12.0261 7.33691 11.9304 7.36256 11.8435 7.34546C8.93044 6.83251 6.24348 7.64468 3.5913 8.68767C2.63478 9.06383 1.62609 9.31175 0.634783 9.60242C0.486957 9.64516 0.295652 9.55112 0 9.49983L0 9.52548Z" fill="white"/>
</g>
<defs>
<clipPath id="clip0_3077_5070">
<rect width="70" height="17.3034" fill="white"/>
</clipPath>
</defs>
</svg>
