<svg width="25" height="25" viewBox="0 0 25 25" fill="none" xmlns="http://www.w3.org/2000/svg">
<g clip-path="url(#clip0_4187_1740)">
<path d="M12.5001 5.99609C11.2241 5.99614 9.9768 6.37456 8.91589 7.08349C7.85498 7.79242 7.02811 8.80002 6.53985 9.97888C6.05159 11.1577 5.92386 12.4549 6.17283 13.7064C6.42179 14.9578 7.03625 16.1073 7.93852 17.0096C8.84079 17.9118 9.99034 18.5262 11.2418 18.7751C12.4933 19.0241 13.7904 18.8963 14.9693 18.408C16.1481 17.9197 17.1557 17.0928 17.8646 16.0318C18.5735 14.9709 18.9518 13.7236 18.9518 12.4476C18.9485 10.7375 18.2677 9.09844 17.0585 7.88925C15.8493 6.68007 14.2102 5.99933 12.5001 5.99609ZM12.5001 16.5808C11.6827 16.5808 10.8836 16.3384 10.204 15.8842C9.52437 15.43 8.99467 14.7846 8.68189 14.0294C8.3691 13.2742 8.28728 12.4432 8.44676 11.6415C8.60624 10.8398 8.99986 10.1034 9.57786 9.52537C10.1559 8.94738 10.8923 8.55375 11.694 8.39427C12.4957 8.23479 13.3266 8.31662 14.0818 8.6294C14.837 8.94219 15.4825 9.47189 15.9367 10.1515C16.3908 10.8311 16.6333 11.6302 16.6333 12.4476C16.6285 13.5423 16.1914 14.5908 15.4174 15.3649C14.6433 16.1389 13.5948 16.576 12.5001 16.5808Z" fill="#333333"/>
<path d="M19.2039 7.31022C20.0112 7.31022 20.6657 6.65577 20.6657 5.84847C20.6657 5.04117 20.0112 4.38672 19.2039 4.38672C18.3966 4.38672 17.7422 5.04117 17.7422 5.84847C17.7422 6.65577 18.3966 7.31022 19.2039 7.31022Z" fill="#333333"/>
<path d="M22.9837 2.0665C21.6735 0.70575 19.8085 0 17.6915 0H7.3085C2.9235 0 0 2.9235 0 7.3085V17.6413C0 19.8085 0.70575 21.6735 2.117 23.0345C3.478 24.345 5.292 25.0003 7.359 25.0003H17.6412C19.8085 25.0003 21.623 24.2945 22.9335 23.0345C24.2945 21.724 25 19.8595 25 17.6918V7.3085C25 5.1915 24.2942 3.377 22.9837 2.0665ZM22.7822 17.6915C22.7822 19.254 22.2277 20.514 21.3205 21.371C20.4132 22.228 19.1532 22.6815 17.641 22.6815H7.35875C5.84675 22.6815 4.5865 22.2278 3.67925 21.371C2.772 20.4638 2.31825 19.2038 2.31825 17.6413V7.3085C2.31825 5.7965 2.772 4.53625 3.67925 3.629C4.536 2.77225 5.8465 2.3185 7.35875 2.3185H17.742C19.254 2.3185 20.5142 2.77225 21.4215 3.6795C22.3259 4.66858 22.8134 5.96865 22.7825 7.3085L22.7822 17.6915Z" fill="#333333"/>
</g>
<defs>
<clipPath id="clip0_4187_1740">
<rect width="25" height="25" fill="white"/>
</clipPath>
</defs>
</svg>
