<svg width="25" height="25" viewBox="0 0 25 25" fill="none" xmlns="http://www.w3.org/2000/svg">
<g clip-path="url(#clip0_4187_1747)">
<path d="M21.4812 0H3.518C2.58486 0.000198892 1.69 0.371045 1.03026 1.03097C0.370526 1.6909 -6.63103e-05 2.58586 8.89955e-09 3.519V21.4815C6.62795e-05 22.4146 0.370717 23.3094 1.03044 23.9692C1.69017 24.629 2.58494 24.9998 3.518 25H11.693V15.875H8.60325V12.3155H11.693V9.694C11.693 8.208 12.1039 7.05433 12.9257 6.233C13.7476 5.41167 14.8622 5.00017 16.2695 4.9985C17.679 4.9985 18.5915 5.05325 19.0085 5.15625V8.325H17.1313C16.4531 8.325 15.9901 8.46875 15.7422 8.75625C15.4686 9.12845 15.3373 9.58633 15.372 10.047V12.3158H18.893L18.4235 15.875H15.372V25H21.4812C22.4145 25 23.3095 24.6293 23.9694 23.9694C24.6293 23.3095 25 22.4145 25 21.4813V3.519C25 3.05689 24.909 2.5993 24.7322 2.17236C24.5554 1.74541 24.2962 1.35748 23.9695 1.03071C23.6427 0.703934 23.2548 0.444722 22.8279 0.267873C22.4009 0.0910234 21.9434 -1.16632e-09 21.4812 0Z" fill="#333333"/>
</g>
<defs>
<clipPath id="clip0_4187_1747">
<rect width="25" height="25" fill="white"/>
</clipPath>
</defs>
</svg>
