<svg width="22" height="22" viewBox="0 0 22 22" fill="none" xmlns="http://www.w3.org/2000/svg">
<g clip-path="url(#clip0_3326_66287)">
<path d="M17.7511 8.95826C17.9044 8.95826 18.0514 9.01915 18.1598 9.12754C18.2682 9.23592 18.3291 9.38293 18.3291 9.5362C18.3291 9.68948 18.2682 9.83648 18.1598 9.94487C18.0514 10.0533 17.9044 10.1141 17.7511 10.1141H16.1425V11.1455H17.7511C17.9042 11.1455 18.051 11.2063 18.1592 11.3145C18.2674 11.4227 18.3282 11.5695 18.3282 11.7226C18.3282 11.8756 18.2674 12.0224 18.1592 12.1306C18.051 12.2388 17.9042 12.2996 17.7511 12.2996H15.5641C15.4116 12.2987 15.2657 12.2376 15.158 12.1296C15.0504 12.0216 14.9897 11.8755 14.9893 11.723V7.3494C14.9897 7.19638 15.0507 7.04977 15.1589 6.94156C15.2671 6.83336 15.4137 6.77237 15.5668 6.7719H17.754C17.8298 6.77208 17.9049 6.78719 17.9749 6.81637C18.0449 6.84555 18.1085 6.88824 18.162 6.94198C18.2155 6.99573 18.2579 7.05949 18.2867 7.12962C18.3156 7.19976 18.3304 7.27489 18.3302 7.35072C18.33 7.42656 18.3149 7.50163 18.2857 7.57162C18.2565 7.64162 18.2139 7.70519 18.1601 7.75869C18.1064 7.8122 18.0426 7.85459 17.9725 7.88345C17.9023 7.91231 17.8272 7.92708 17.7514 7.92691H16.1425V8.95826H17.7511ZM14.2175 11.7228C14.2172 11.8439 14.1788 11.9618 14.1077 12.0598C14.0366 12.1579 13.9365 12.2311 13.8215 12.269C13.7626 12.288 13.701 12.2976 13.6391 12.2974C13.5485 12.2994 13.4588 12.2796 13.3775 12.2397C13.2961 12.1998 13.2255 12.141 13.1716 12.0682L10.9322 9.02756V11.7226C10.9337 11.7992 10.9199 11.8753 10.8917 11.9465C10.8634 12.0177 10.8212 12.0825 10.7676 12.1372C10.7139 12.1919 10.6499 12.2354 10.5793 12.2651C10.5086 12.2947 10.4328 12.31 10.3562 12.31C10.2796 12.31 10.2037 12.2947 10.1331 12.2651C10.0624 12.2354 9.99843 12.1919 9.94479 12.1372C9.89115 12.0825 9.84895 12.0177 9.82067 11.9465C9.7924 11.8753 9.7786 11.7992 9.7801 11.7226V7.3494C9.78011 7.22859 9.81821 7.11085 9.88899 7.01294C9.95977 6.91503 10.0596 6.84192 10.1743 6.80402C10.2315 6.78396 10.2916 6.77377 10.3521 6.77389C10.4403 6.77654 10.5268 6.79881 10.6053 6.83907C10.6838 6.87933 10.7523 6.93658 10.806 7.00664L13.0625 10.0591V7.3494C13.0625 7.19624 13.1233 7.04935 13.2316 6.94105C13.3399 6.83275 13.4868 6.7719 13.64 6.7719C13.7932 6.7719 13.9401 6.83275 14.0484 6.94105C14.1567 7.04935 14.2175 7.19624 14.2175 7.3494V11.7228ZM8.95488 11.7228C8.95488 11.7985 8.93997 11.8735 8.91099 11.9434C8.88201 12.0134 8.83954 12.077 8.78599 12.1305C8.73245 12.1841 8.66888 12.2265 8.59892 12.2555C8.52896 12.2845 8.45398 12.2994 8.37826 12.2994C8.30254 12.2994 8.22756 12.2845 8.1576 12.2555C8.08764 12.2265 8.02407 12.1841 7.97053 12.1305C7.91698 12.077 7.87451 12.0134 7.84553 11.9434C7.81655 11.8735 7.80164 11.7985 7.80164 11.7228V7.3494C7.80164 7.27368 7.81655 7.1987 7.84553 7.12874C7.87451 7.05878 7.91698 6.99522 7.97053 6.94167C8.02407 6.88813 8.08764 6.84566 8.1576 6.81668C8.22756 6.7877 8.30254 6.77278 8.37826 6.77278C8.45398 6.77278 8.52896 6.7877 8.59892 6.81668C8.66888 6.84566 8.73245 6.88813 8.78599 6.94167C8.83954 6.99522 8.88201 7.05878 8.91099 7.12874C8.93997 7.1987 8.95488 7.27368 8.95488 7.3494V11.7228ZM6.69438 12.2994H4.50714C4.3544 12.2985 4.20814 12.2375 4.10005 12.1296C3.99196 12.0217 3.93074 11.8755 3.92964 11.7228V7.3494C3.92964 7.19624 3.99048 7.04935 4.09879 6.94105C4.20709 6.83275 4.35398 6.7719 4.50714 6.7719C4.6603 6.7719 4.80719 6.83275 4.91549 6.94105C5.0238 7.04935 5.08464 7.19624 5.08464 7.3494V11.1453H6.69438C6.84743 11.1453 6.9942 11.2061 7.10242 11.3143C7.21064 11.4225 7.27144 11.5693 7.27144 11.7223C7.27144 11.8754 7.21064 12.0222 7.10242 12.1304C6.9942 12.2386 6.84743 12.2994 6.69438 12.2994ZM22 9.37164C22 4.44827 17.0636 0.441406 11 0.441406C4.93636 0.441406 0 4.44827 0 9.37164C0 13.7815 3.91424 17.4767 9.19864 18.1796C9.55702 18.2548 10.0448 18.4161 10.1684 18.7203C10.2538 19.0436 10.2656 19.3819 10.2032 19.7103L10.0529 20.6453C10.0118 20.9212 9.8329 21.7326 11.0145 21.2367C12.1961 20.7408 17.3543 17.4976 19.6643 14.8422C21.2447 13.1105 22 11.3376 22 9.37164Z" fill="white"/>
</g>
<defs>
<clipPath id="clip0_3326_66287">
<rect width="22" height="22" fill="white"/>
</clipPath>
</defs>
</svg>
