<svg width="25" height="23" viewBox="0 0 25 23" fill="none" xmlns="http://www.w3.org/2000/svg">
<g clip-path="url(#clip0_4187_1729)">
<path d="M0 6.91838C0.136883 6.17634 0.365672 5.46947 0.803045 4.8447C1.78925 3.43488 3.14309 2.68046 4.86585 2.66743C7.58135 2.64658 10.2968 2.66091 13.0123 2.66287C13.5038 2.66287 13.8799 2.92998 14.0174 3.36191C14.1465 3.76714 14.0038 4.2082 13.6557 4.46879C13.4145 4.6486 13.1336 4.67792 12.8448 4.67792C10.1945 4.67792 7.54419 4.67661 4.89323 4.67857C3.791 4.67922 2.96319 5.17761 2.38306 6.09751C2.08909 6.56332 1.97176 7.08777 1.97111 7.63176C1.96655 11.4671 1.9685 15.303 1.9685 19.1383C1.9685 19.5807 2.12494 19.9357 2.54341 20.1286C2.9697 20.3253 3.33277 20.1859 3.65998 19.8921C4.13777 19.4628 4.62207 19.0412 5.09269 18.6048C5.34625 18.3696 5.62979 18.264 5.97461 18.2647C9.36473 18.2692 12.7555 18.2686 16.1456 18.2666C17.5699 18.266 18.7164 17.3526 19.0319 15.9695C19.086 15.7323 19.1095 15.4893 19.1095 15.2444C19.1088 14.5616 19.1069 13.8795 19.1101 13.1968C19.1127 12.6176 19.5416 12.1785 20.0989 12.1765C20.6556 12.1746 21.091 12.6137 21.0936 13.1909C21.0975 13.9707 21.0988 14.7512 21.0936 15.531C21.0767 17.7754 19.2737 19.8543 17.0556 20.1963C16.6775 20.2543 16.2982 20.2843 15.9149 20.2843C12.7927 20.283 9.67109 20.2849 6.54886 20.2797C6.33115 20.2797 6.16103 20.3312 6.00068 20.481C5.65065 20.8087 5.28693 21.1214 4.92973 21.4413C3.24999 22.943 0.667466 22.1775 0.0703968 20.0009C0.0508422 19.9299 0.0234656 19.8615 0 19.7924C0 15.5011 0 11.2097 0 6.91838Z" fill="#333333"/>
<path d="M24.9993 3.2575C24.9954 3.78651 24.7001 4.48425 24.1317 5.05496C21.763 7.43223 19.3904 9.80625 17.0112 12.1731C15.7336 13.4442 14.1869 14.1732 12.3957 14.3803C12.1538 14.4084 11.9094 14.4253 11.6663 14.4272C11.0184 14.4318 10.5679 13.9908 10.5803 13.3412C10.6142 11.5503 11.1839 9.95023 12.3233 8.56061C12.483 8.36646 12.6538 8.17949 12.8311 8.00163C15.2031 5.62761 17.5744 3.25294 19.9522 0.884135C21.1692 -0.328934 23.0738 -0.288542 24.2373 0.973388C24.7542 1.53367 25.0039 2.20796 24.9993 3.2575ZM23.0047 2.93306C22.9812 2.73501 22.9317 2.53435 22.7883 2.36366C22.3855 1.88482 21.7734 1.88743 21.278 2.3819C18.9784 4.67774 16.6827 6.9788 14.3805 9.27268C13.5983 10.0525 13.0299 10.9529 12.7561 12.0291C12.6864 12.3041 12.6929 12.3112 12.9653 12.2441C13.9594 11.9985 14.8224 11.5145 15.5472 10.7952C16.845 9.50787 18.135 8.21271 19.4282 6.92016C20.503 5.84651 21.5753 4.77026 22.6534 3.69986C22.8665 3.48813 22.9871 3.24447 23.0041 2.93306H23.0047Z" fill="#333333"/>
<path d="M6.45169 10.5274C5.88004 10.5274 5.42507 10.5365 4.9701 10.5255C4.30328 10.5085 3.88155 10.1007 3.88677 9.49482C3.89133 8.97428 4.29024 8.52931 4.81496 8.52019C5.8305 8.50325 6.84604 8.50455 7.86158 8.51889C8.36739 8.52605 8.77609 8.94952 8.7976 9.43683C8.82171 9.98604 8.49385 10.4147 7.96522 10.4942C7.42421 10.5756 6.87798 10.5053 6.45104 10.5274H6.45169Z" fill="#333333"/>
<path d="M6.34217 12.4159C6.81344 12.4159 7.28471 12.4133 7.75597 12.4165C8.32241 12.4211 8.75978 12.7983 8.79628 13.3077C8.838 13.8973 8.49645 14.3202 7.90133 14.4107C7.82898 14.4218 7.75597 14.4303 7.68362 14.4303C6.78997 14.4316 5.89632 14.4374 5.00202 14.429C4.32739 14.4231 3.89132 14.0231 3.88676 13.4302C3.88219 12.8719 4.2948 12.4328 4.85536 12.4198C5.35075 12.4087 5.84679 12.4172 6.34217 12.4172V12.4159Z" fill="#333333"/>
</g>
<defs>
<clipPath id="clip0_4187_1729">
<rect width="25" height="22.2222" fill="white"/>
</clipPath>
</defs>
</svg>
