<svg width="25" height="25" viewBox="0 0 25 25" fill="none" xmlns="http://www.w3.org/2000/svg">
<g clip-path="url(#clip0_4187_1736)">
<path d="M20.1717 10.1782C20.3459 10.1782 20.513 10.2474 20.6361 10.3706C20.7593 10.4938 20.8285 10.6608 20.8285 10.835C20.8285 11.0092 20.7593 11.1762 20.6361 11.2994C20.513 11.4226 20.3459 11.4917 20.1717 11.4917H18.3438V12.6637H20.1717C20.3457 12.6637 20.5125 12.7328 20.6354 12.8558C20.7584 12.9788 20.8275 13.1456 20.8275 13.3195C20.8275 13.4934 20.7584 13.6602 20.6354 13.7832C20.5125 13.9062 20.3457 13.9752 20.1717 13.9752H17.6865C17.5132 13.9742 17.3474 13.9048 17.225 13.782C17.1027 13.6593 17.0338 13.4933 17.0333 13.32V8.35C17.0338 8.17611 17.1031 8.0095 17.226 7.88654C17.349 7.76359 17.5156 7.69428 17.6895 7.69375H20.175C20.2612 7.69395 20.3465 7.71111 20.426 7.74428C20.5056 7.77744 20.5778 7.82594 20.6386 7.88702C20.6994 7.9481 20.7476 8.02055 20.7804 8.10025C20.8132 8.17994 20.8299 8.26532 20.8298 8.3515C20.8296 8.43768 20.8124 8.52298 20.7792 8.60252C20.7461 8.68207 20.6976 8.7543 20.6365 8.8151C20.5754 8.8759 20.5029 8.92407 20.4233 8.95687C20.3436 8.98967 20.2582 9.00645 20.172 9.00625H18.3438V10.1782H20.1717ZM16.1562 13.3197C16.1559 13.4574 16.1122 13.5914 16.0315 13.7028C15.9507 13.8142 15.8369 13.8974 15.7063 13.9405C15.6393 13.962 15.5693 13.9729 15.499 13.9727C15.3961 13.975 15.2941 13.9524 15.2017 13.9071C15.1093 13.8618 15.029 13.795 14.9677 13.7122L12.423 10.257V13.3195C12.4247 13.4065 12.409 13.493 12.3769 13.574C12.3448 13.6549 12.2968 13.7286 12.2359 13.7907C12.1749 13.8529 12.1022 13.9023 12.0219 13.936C11.9416 13.9697 11.8554 13.987 11.7684 13.987C11.6813 13.987 11.5951 13.9697 11.5149 13.936C11.4346 13.9023 11.3619 13.8529 11.3009 13.7907C11.2399 13.7286 11.192 13.6549 11.1599 13.574C11.1277 13.493 11.112 13.4065 11.1138 13.3195V8.35C11.1138 8.21271 11.1571 8.07891 11.2375 7.96765C11.3179 7.85639 11.4314 7.77331 11.5618 7.73025C11.6267 7.70745 11.695 7.69587 11.7638 7.696C11.864 7.69902 11.9622 7.72432 12.0515 7.77007C12.1407 7.81582 12.2186 7.88088 12.2795 7.9605L14.8438 11.4292V8.35C14.8438 8.17595 14.9129 8.00903 15.036 7.88596C15.159 7.76289 15.326 7.69375 15.5 7.69375C15.674 7.69375 15.841 7.76289 15.964 7.88596C16.0871 8.00903 16.1562 8.17595 16.1562 8.35V13.3197ZM10.176 13.3197C10.176 13.4058 10.1591 13.491 10.1261 13.5705C10.0932 13.65 10.0449 13.7222 9.98408 13.7831C9.92324 13.8439 9.851 13.8922 9.7715 13.9251C9.69201 13.958 9.6068 13.975 9.52075 13.975C9.4347 13.975 9.34949 13.958 9.27 13.9251C9.1905 13.8922 9.11826 13.8439 9.05742 13.7831C8.99657 13.7222 8.94831 13.65 8.91538 13.5705C8.88245 13.491 8.8655 13.4058 8.8655 13.3197V8.35C8.8655 8.26395 8.88245 8.17874 8.91538 8.09925C8.94831 8.01975 8.99657 7.94751 9.05742 7.88667C9.11826 7.82582 9.1905 7.77756 9.27 7.74463C9.34949 7.7117 9.4347 7.69475 9.52075 7.69475C9.6068 7.69475 9.69201 7.7117 9.7715 7.74463C9.851 7.77756 9.92324 7.82582 9.98408 7.88667C10.0449 7.94751 10.0932 8.01975 10.1261 8.09925C10.1591 8.17874 10.176 8.26395 10.176 8.35V13.3197ZM7.60725 13.975H5.12175C4.94818 13.974 4.78198 13.9047 4.65915 13.7821C4.53632 13.6594 4.46675 13.4933 4.4655 13.3197V8.35C4.4655 8.17595 4.53464 8.00903 4.65771 7.88596C4.78078 7.76289 4.9477 7.69375 5.12175 7.69375C5.2958 7.69375 5.46272 7.76289 5.58579 7.88596C5.70886 8.00903 5.778 8.17595 5.778 8.35V12.6635H7.60725C7.78117 12.6635 7.94796 12.7326 8.07094 12.8556C8.19391 12.9785 8.263 13.1453 8.263 13.3192C8.263 13.4932 8.19391 13.66 8.07094 13.7829C7.94796 13.9059 7.78117 13.975 7.60725 13.975ZM25 10.648C25 5.05325 19.3905 0.5 12.5 0.5C5.6095 0.5 0 5.05325 0 10.648C0 15.6592 4.448 19.8582 10.453 20.657C10.8603 20.7425 11.4145 20.9257 11.555 21.2715C11.652 21.6388 11.6655 22.0233 11.5945 22.3965L11.4237 23.459C11.377 23.7725 11.1738 24.6945 12.5165 24.131C13.8593 23.5675 19.7208 19.882 22.3458 16.8645C24.1418 14.8967 25 12.882 25 10.648Z" fill="#333333"/>
</g>
<defs>
<clipPath id="clip0_4187_1736">
<rect width="25" height="25" fill="white"/>
</clipPath>
</defs>
</svg>
