<svg width="22" height="22" viewBox="0 0 22 22" fill="none" xmlns="http://www.w3.org/2000/svg">
<g clip-path="url(#clip0_3326_66298)">
<path d="M18.9035 0H3.09584C2.27467 0.000175025 1.4872 0.32652 0.906633 0.907255C0.326063 1.48799 -5.8353e-05 2.27555 7.83161e-09 3.09672V18.9037C5.8326e-05 19.7248 0.326231 20.5123 0.906788 21.0929C1.48735 21.6735 2.27475 21.9998 3.09584 22H10.2898V13.97H7.57086V10.8376H10.2898V8.53072C10.2898 7.22304 10.6514 6.20781 11.3747 5.48504C12.0979 4.76227 13.0787 4.40015 14.3172 4.39868C15.5575 4.39868 16.3605 4.44686 16.7275 4.5375V7.326H15.0755C14.4787 7.326 14.0713 7.4525 13.8532 7.7055C13.6124 8.03304 13.4968 8.43597 13.5274 8.84136V10.8379H16.6258L16.2127 13.97H13.5274V22H18.9035C19.7247 22 20.5123 21.6738 21.0931 21.0931C21.6738 20.5124 22 19.7247 22 18.9035V3.09672C22 2.69006 21.92 2.28738 21.7644 1.91167C21.6088 1.53596 21.3807 1.19458 21.0931 0.907022C20.8056 0.619462 20.4642 0.391356 20.0885 0.235728C19.7128 0.0801006 19.3102 -1.02636e-09 18.9035 0Z" fill="white"/>
</g>
<defs>
<clipPath id="clip0_3326_66298">
<rect width="22" height="22" fill="white"/>
</clipPath>
</defs>
</svg>
