<svg width="22" height="20" viewBox="0 0 22 20" fill="none" xmlns="http://www.w3.org/2000/svg">
<g clip-path="url(#clip0_3326_66280)">
<path d="M0 6.09052C0.120457 5.43752 0.321792 4.81548 0.70668 4.26568C1.57454 3.02504 2.76592 2.36115 4.28195 2.34968C6.67159 2.33134 9.06122 2.34395 11.4509 2.34567C11.8833 2.34567 12.2143 2.58072 12.3353 2.96083C12.4489 3.31743 12.3233 3.70556 12.017 3.93488C11.8048 4.09311 11.5575 4.11891 11.3034 4.11891C8.97116 4.11891 6.63889 4.11776 4.30604 4.11948C3.33608 4.12006 2.6076 4.55864 2.0971 5.36815C1.8384 5.77807 1.73515 6.23958 1.73458 6.71829C1.73056 10.0934 1.73228 13.469 1.73228 16.8441C1.73228 17.2333 1.86995 17.5458 2.2382 17.7155C2.61334 17.8886 2.93284 17.7659 3.22079 17.5074C3.64124 17.1296 4.06742 16.7586 4.48157 16.3745C4.7047 16.1676 4.95422 16.0747 5.25765 16.0753C8.24096 16.0793 11.2249 16.0787 14.2082 16.077C15.4615 16.0764 16.4705 15.2726 16.7481 14.0555C16.7957 13.8468 16.8163 13.633 16.8163 13.4174C16.8158 12.8166 16.814 12.2163 16.8169 11.6155C16.8192 11.1058 17.1966 10.7194 17.6871 10.7177C18.1769 10.716 18.5601 11.1024 18.5624 11.6103C18.5658 12.2966 18.567 12.9834 18.5624 13.6697C18.5475 15.6447 16.9609 17.4741 15.0089 17.7751C14.6762 17.8261 14.3424 17.8525 14.0051 17.8525C11.2575 17.8514 8.51056 17.8531 5.763 17.8485C5.57141 17.8485 5.4217 17.8938 5.2806 18.0257C4.97257 18.314 4.6525 18.5892 4.33816 18.8707C2.85999 20.1922 0.58737 19.5185 0.0619492 17.6031C0.0447411 17.5406 0.0206497 17.4804 0 17.4197C0 13.6433 0 9.8669 0 6.09052Z" fill="white"/>
<path d="M21.9995 2.8666C21.996 3.33213 21.7362 3.94614 21.236 4.44836C19.1515 6.54036 17.0636 8.6295 14.9699 10.7123C13.8457 11.8309 12.4845 12.4724 10.9083 12.6547C10.6954 12.6794 10.4803 12.6943 10.2664 12.696C9.69623 12.7 9.29987 12.3119 9.31077 11.7403C9.34059 10.1642 9.84192 8.7562 10.8446 7.53333C10.9851 7.36249 11.1354 7.19795 11.2914 7.04144C13.3788 4.9523 15.4655 2.86259 17.558 0.778039C18.629 -0.289462 20.305 -0.253917 21.3289 0.856582C21.7838 1.34963 22.0035 1.943 21.9995 2.8666ZM20.2442 2.58109C20.2236 2.40681 20.18 2.23023 20.0538 2.08002C19.6993 1.65864 19.1607 1.66093 18.7248 2.09608C16.7011 4.11642 14.6808 6.14134 12.6549 8.15996C11.9666 8.84621 11.4664 9.63852 11.2255 10.5856C11.1641 10.8276 11.1698 10.8339 11.4096 10.7748C12.2843 10.5587 13.0438 10.1327 13.6816 9.49978C14.8237 8.36693 15.9588 7.22719 17.0969 6.08974C18.0427 5.14493 18.9863 4.19782 19.9351 3.25588C20.1226 3.06955 20.2287 2.85514 20.2437 2.58109H20.2442Z" fill="white"/>
<path d="M5.67709 9.26554C5.17404 9.26554 4.77367 9.27356 4.37329 9.26382C3.7865 9.24891 3.41538 8.89002 3.41996 8.35684C3.42398 7.89877 3.77502 7.5072 4.23678 7.49917C5.13045 7.48427 6.02412 7.48541 6.9178 7.49803C7.36292 7.50433 7.72257 7.87699 7.74149 8.30582C7.76272 8.78912 7.47419 9.16636 7.009 9.2363C6.53291 9.30796 6.05223 9.24605 5.67652 9.26554H5.67709Z" fill="white"/>
<path d="M5.58267 10.9274C5.99739 10.9274 6.4121 10.9251 6.82682 10.9279C7.32528 10.9319 7.71017 11.2639 7.74229 11.7122C7.779 12.2311 7.47843 12.6031 6.95473 12.6828C6.89106 12.6926 6.82682 12.7 6.76315 12.7C5.97674 12.7012 5.19033 12.7063 4.40334 12.6989C3.80966 12.6937 3.42592 12.3417 3.42191 11.82C3.41789 11.3287 3.78098 10.9423 4.27428 10.9308C4.71022 10.9211 5.14673 10.9285 5.58267 10.9285V10.9274Z" fill="white"/>
</g>
<defs>
<clipPath id="clip0_3326_66280">
<rect width="22" height="19.5556" fill="white"/>
</clipPath>
</defs>
</svg>
