<svg width="22" height="22" viewBox="0 0 22 22" fill="none" xmlns="http://www.w3.org/2000/svg">
<g clip-path="url(#clip0_3326_66291)">
<path d="M11.0013 5.27734C9.87846 5.27739 8.78083 5.61039 7.84723 6.23425C6.91363 6.85811 6.18599 7.7448 5.75632 8.7822C5.32665 9.8196 5.21425 10.9611 5.43334 12.0624C5.65242 13.1637 6.19315 14.1752 6.98715 14.9692C7.78114 15.7632 8.79275 16.3039 9.89403 16.5229C10.9953 16.742 12.1368 16.6295 13.1742 16.1998C14.2116 15.7701 15.0983 15.0424 15.7221 14.1088C16.3459 13.1752 16.6789 12.0775 16.6789 10.9547C16.676 9.4498 16.0768 8.00741 15.0127 6.94333C13.9486 5.87924 12.5062 5.28019 11.0013 5.27734ZM11.0013 14.5919C10.282 14.5919 9.57885 14.3785 8.98077 13.9789C8.3827 13.5792 7.91656 13.0112 7.64131 12.3466C7.36606 11.682 7.29405 10.9508 7.4344 10.2453C7.57474 9.53978 7.92113 8.89174 8.42977 8.38311C8.9384 7.87447 9.58644 7.52808 10.2919 7.38774C10.9974 7.2474 11.7287 7.3194 12.3933 7.59465C13.0578 7.86991 13.6259 8.33604 14.0255 8.93411C14.4252 9.53219 14.6385 10.2353 14.6386 10.9547C14.6343 11.918 14.2497 12.8407 13.5685 13.5219C12.8873 14.2031 11.9647 14.5876 11.0013 14.5919Z" fill="white"/>
<path d="M16.8996 6.43205C17.61 6.43205 18.186 5.85614 18.186 5.14571C18.186 4.43529 17.61 3.85938 16.8996 3.85938C16.1892 3.85938 15.6133 4.43529 15.6133 5.14571C15.6133 5.85614 16.1892 6.43205 16.8996 6.43205Z" fill="white"/>
<path d="M20.2257 1.81852C19.0727 0.62106 17.4315 0 15.5685 0H6.43148C2.57268 0 0 2.57268 0 6.43148V15.5243C0 17.4315 0.62106 19.0727 1.86296 20.2704C3.06064 21.4236 4.65696 22.0002 6.47592 22.0002H15.5243C17.4315 22.0002 19.0282 21.3792 20.1815 20.2704C21.3792 19.1171 22 17.4764 22 15.5687V6.43148C22 4.56852 21.3789 2.97176 20.2257 1.81852ZM20.0484 15.5685C20.0484 16.9435 19.5604 18.0523 18.762 18.8065C17.9637 19.5606 16.8549 19.9597 15.5241 19.9597H6.4757C5.14514 19.9597 4.03612 19.5604 3.23774 18.8065C2.43936 18.0081 2.04006 16.8993 2.04006 15.5243V6.43148C2.04006 5.10092 2.43936 3.9919 3.23774 3.19352C3.99168 2.43958 5.14492 2.04028 6.4757 2.04028H15.613C16.9435 2.04028 18.0525 2.43958 18.8509 3.23796C19.6468 4.10835 20.0758 5.25241 20.0486 6.43148L20.0484 15.5685Z" fill="white"/>
</g>
<defs>
<clipPath id="clip0_3326_66291">
<rect width="22" height="22" fill="white"/>
</clipPath>
</defs>
</svg>
